<mxfile host="Electron" modified="2024-05-01T14:36:20.219Z" agent="Mozilla/5.0 (Windows NT 10.0; Win64; x64) AppleWebKit/537.36 (KHTML, like Gecko) draw.io/22.1.2 Chrome/114.0.5735.289 Electron/25.9.4 Safari/537.36" etag="hKSOFRl7sePRzMvAk5IQ" version="22.1.2" type="device">
  <diagram name="Page-1" id="R6TBppXfZWCXH75fYYaK">
    <mxGraphModel dx="1687" dy="1040" grid="1" gridSize="10" guides="1" tooltips="1" connect="1" arrows="1" fold="1" page="1" pageScale="1" pageWidth="827" pageHeight="1169" math="0" shadow="0">
      <root>
        <mxCell id="0" />
        <mxCell id="1" parent="0" />
        <mxCell id="SBMeFAJlEWchc6X-bSF--1" value="&lt;b&gt;&lt;font style=&quot;font-size: 48px;&quot;&gt;SDL Engine&lt;/font&gt;&lt;/b&gt;" style="text;html=1;strokeColor=none;fillColor=none;align=center;verticalAlign=middle;whiteSpace=wrap;rounded=0;" parent="1" vertex="1">
          <mxGeometry x="274" width="280" height="60" as="geometry" />
        </mxCell>
        <mxCell id="SBMeFAJlEWchc6X-bSF--2" value="Transform" style="rounded=0;whiteSpace=wrap;html=1;" parent="1" vertex="1">
          <mxGeometry x="40" y="200" width="120" height="60" as="geometry" />
        </mxCell>
        <mxCell id="SBMeFAJlEWchc6X-bSF--3" value="Vector2" style="rounded=0;whiteSpace=wrap;html=1;" parent="1" vertex="1">
          <mxGeometry x="40" y="120" width="120" height="60" as="geometry" />
        </mxCell>
        <mxCell id="SBMeFAJlEWchc6X-bSF--4" value="&lt;font style=&quot;font-size: 24px;&quot;&gt;&lt;b&gt;Mathematics:&lt;/b&gt;&lt;/font&gt;" style="text;html=1;strokeColor=none;fillColor=none;align=left;verticalAlign=middle;whiteSpace=wrap;rounded=0;" parent="1" vertex="1">
          <mxGeometry x="40" y="80" width="160" height="30" as="geometry" />
        </mxCell>
        <mxCell id="SBMeFAJlEWchc6X-bSF--5" value="&lt;font style=&quot;font-size: 24px;&quot;&gt;&lt;b&gt;Collisions:&lt;/b&gt;&lt;/font&gt;" style="text;html=1;strokeColor=none;fillColor=none;align=left;verticalAlign=middle;whiteSpace=wrap;rounded=0;" parent="1" vertex="1">
          <mxGeometry x="240" y="80" width="130" height="30" as="geometry" />
        </mxCell>
        <mxCell id="X7MkvyAMtegaUzHnTH6l-51" style="edgeStyle=orthogonalEdgeStyle;rounded=0;orthogonalLoop=1;jettySize=auto;html=1;exitX=0.25;exitY=1;exitDx=0;exitDy=0;entryX=0;entryY=0.5;entryDx=0;entryDy=0;" edge="1" parent="1" source="SBMeFAJlEWchc6X-bSF--6" target="X7MkvyAMtegaUzHnTH6l-50">
          <mxGeometry relative="1" as="geometry">
            <Array as="points">
              <mxPoint x="270" y="200" />
            </Array>
          </mxGeometry>
        </mxCell>
        <mxCell id="SBMeFAJlEWchc6X-bSF--6" value="CollisionHandler" style="rounded=0;whiteSpace=wrap;html=1;" parent="1" vertex="1">
          <mxGeometry x="240" y="120" width="120" height="60" as="geometry" />
        </mxCell>
        <mxCell id="SBMeFAJlEWchc6X-bSF--7" value="BoxCollider" style="rounded=0;whiteSpace=wrap;html=1;" parent="1" vertex="1">
          <mxGeometry x="240" y="229" width="120" height="60" as="geometry" />
        </mxCell>
        <mxCell id="SBMeFAJlEWchc6X-bSF--8" value="CircleCollider" style="rounded=0;whiteSpace=wrap;html=1;" parent="1" vertex="1">
          <mxGeometry x="240" y="309" width="120" height="60" as="geometry" />
        </mxCell>
        <mxCell id="SBMeFAJlEWchc6X-bSF--10" value="PhysicsHandler" style="rounded=0;whiteSpace=wrap;html=1;" parent="1" vertex="1">
          <mxGeometry x="440" y="120" width="120" height="60" as="geometry" />
        </mxCell>
        <mxCell id="SBMeFAJlEWchc6X-bSF--11" value="&lt;font style=&quot;font-size: 24px;&quot;&gt;&lt;b&gt;Physics:&lt;/b&gt;&lt;/font&gt;" style="text;html=1;strokeColor=none;fillColor=none;align=left;verticalAlign=middle;whiteSpace=wrap;rounded=0;" parent="1" vertex="1">
          <mxGeometry x="440" y="80" width="130" height="30" as="geometry" />
        </mxCell>
        <mxCell id="SBMeFAJlEWchc6X-bSF--12" value="Rigidbody" style="rounded=0;whiteSpace=wrap;html=1;" parent="1" vertex="1">
          <mxGeometry x="440" y="200" width="120" height="60" as="geometry" />
        </mxCell>
        <mxCell id="SBMeFAJlEWchc6X-bSF--13" value="&lt;font style=&quot;font-size: 24px;&quot;&gt;&lt;b&gt;Input:&lt;/b&gt;&lt;/font&gt;" style="text;html=1;strokeColor=none;fillColor=none;align=left;verticalAlign=middle;whiteSpace=wrap;rounded=0;" parent="1" vertex="1">
          <mxGeometry x="640" y="80" width="130" height="30" as="geometry" />
        </mxCell>
        <mxCell id="X7MkvyAMtegaUzHnTH6l-49" style="edgeStyle=orthogonalEdgeStyle;rounded=0;orthogonalLoop=1;jettySize=auto;html=1;exitX=0.25;exitY=1;exitDx=0;exitDy=0;entryX=0;entryY=0.5;entryDx=0;entryDy=0;" edge="1" parent="1" source="SBMeFAJlEWchc6X-bSF--14" target="X7MkvyAMtegaUzHnTH6l-48">
          <mxGeometry relative="1" as="geometry">
            <Array as="points">
              <mxPoint x="670" y="200" />
            </Array>
          </mxGeometry>
        </mxCell>
        <mxCell id="SBMeFAJlEWchc6X-bSF--14" value="InputHandler" style="rounded=0;whiteSpace=wrap;html=1;" parent="1" vertex="1">
          <mxGeometry x="640" y="120" width="120" height="60" as="geometry" />
        </mxCell>
        <mxCell id="SBMeFAJlEWchc6X-bSF--15" value="&lt;font style=&quot;font-size: 24px;&quot;&gt;&lt;b&gt;Textures:&lt;/b&gt;&lt;/font&gt;" style="text;html=1;strokeColor=none;fillColor=none;align=left;verticalAlign=middle;whiteSpace=wrap;rounded=0;" parent="1" vertex="1">
          <mxGeometry x="40" y="390" width="130" height="30" as="geometry" />
        </mxCell>
        <mxCell id="SBMeFAJlEWchc6X-bSF--22" style="edgeStyle=orthogonalEdgeStyle;rounded=0;orthogonalLoop=1;jettySize=auto;html=1;exitX=0.25;exitY=1;exitDx=0;exitDy=0;entryX=0;entryY=0.5;entryDx=0;entryDy=0;" parent="1" source="SBMeFAJlEWchc6X-bSF--16" target="SBMeFAJlEWchc6X-bSF--21" edge="1">
          <mxGeometry relative="1" as="geometry" />
        </mxCell>
        <mxCell id="SBMeFAJlEWchc6X-bSF--24" style="edgeStyle=orthogonalEdgeStyle;rounded=0;orthogonalLoop=1;jettySize=auto;html=1;exitX=0.25;exitY=1;exitDx=0;exitDy=0;entryX=0;entryY=0.5;entryDx=0;entryDy=0;" parent="1" source="SBMeFAJlEWchc6X-bSF--16" target="SBMeFAJlEWchc6X-bSF--23" edge="1">
          <mxGeometry relative="1" as="geometry" />
        </mxCell>
        <mxCell id="SBMeFAJlEWchc6X-bSF--16" value="TextureHandler" style="rounded=0;whiteSpace=wrap;html=1;" parent="1" vertex="1">
          <mxGeometry x="40" y="430" width="120" height="60" as="geometry" />
        </mxCell>
        <mxCell id="SBMeFAJlEWchc6X-bSF--17" value="&lt;font style=&quot;font-size: 24px;&quot;&gt;&lt;b&gt;Audio:&lt;/b&gt;&lt;/font&gt;" style="text;html=1;strokeColor=none;fillColor=none;align=left;verticalAlign=middle;whiteSpace=wrap;rounded=0;" parent="1" vertex="1">
          <mxGeometry x="240" y="390" width="130" height="30" as="geometry" />
        </mxCell>
        <mxCell id="SBMeFAJlEWchc6X-bSF--27" style="edgeStyle=orthogonalEdgeStyle;rounded=0;orthogonalLoop=1;jettySize=auto;html=1;exitX=0.25;exitY=1;exitDx=0;exitDy=0;entryX=0;entryY=0.5;entryDx=0;entryDy=0;" parent="1" source="SBMeFAJlEWchc6X-bSF--18" target="SBMeFAJlEWchc6X-bSF--25" edge="1">
          <mxGeometry relative="1" as="geometry" />
        </mxCell>
        <mxCell id="SBMeFAJlEWchc6X-bSF--28" style="edgeStyle=orthogonalEdgeStyle;rounded=0;orthogonalLoop=1;jettySize=auto;html=1;exitX=0.25;exitY=1;exitDx=0;exitDy=0;entryX=0;entryY=0.5;entryDx=0;entryDy=0;" parent="1" source="SBMeFAJlEWchc6X-bSF--18" target="SBMeFAJlEWchc6X-bSF--26" edge="1">
          <mxGeometry relative="1" as="geometry" />
        </mxCell>
        <mxCell id="SBMeFAJlEWchc6X-bSF--18" value="AudioHandler" style="rounded=0;whiteSpace=wrap;html=1;" parent="1" vertex="1">
          <mxGeometry x="240" y="430" width="120" height="60" as="geometry" />
        </mxCell>
        <mxCell id="SBMeFAJlEWchc6X-bSF--19" value="&lt;font style=&quot;font-size: 24px;&quot;&gt;&lt;b&gt;UI:&lt;/b&gt;&lt;/font&gt;" style="text;html=1;strokeColor=none;fillColor=none;align=left;verticalAlign=middle;whiteSpace=wrap;rounded=0;" parent="1" vertex="1">
          <mxGeometry x="440" y="390" width="130" height="30" as="geometry" />
        </mxCell>
        <mxCell id="SBMeFAJlEWchc6X-bSF--20" value="Button" style="rounded=0;whiteSpace=wrap;html=1;" parent="1" vertex="1">
          <mxGeometry x="440" y="510" width="120" height="60" as="geometry" />
        </mxCell>
        <mxCell id="SBMeFAJlEWchc6X-bSF--21" value="Images" style="rounded=0;whiteSpace=wrap;html=1;" parent="1" vertex="1">
          <mxGeometry x="110" y="500" width="50" height="20" as="geometry" />
        </mxCell>
        <mxCell id="SBMeFAJlEWchc6X-bSF--23" value="Text" style="rounded=0;whiteSpace=wrap;html=1;" parent="1" vertex="1">
          <mxGeometry x="110" y="530" width="50" height="20" as="geometry" />
        </mxCell>
        <mxCell id="SBMeFAJlEWchc6X-bSF--25" value="Music" style="rounded=0;whiteSpace=wrap;html=1;" parent="1" vertex="1">
          <mxGeometry x="310" y="500" width="50" height="20" as="geometry" />
        </mxCell>
        <mxCell id="SBMeFAJlEWchc6X-bSF--26" value="SFX" style="rounded=0;whiteSpace=wrap;html=1;" parent="1" vertex="1">
          <mxGeometry x="310" y="530" width="50" height="20" as="geometry" />
        </mxCell>
        <mxCell id="SBMeFAJlEWchc6X-bSF--29" value="Text" style="rounded=0;whiteSpace=wrap;html=1;" parent="1" vertex="1">
          <mxGeometry x="440" y="590" width="120" height="60" as="geometry" />
        </mxCell>
        <mxCell id="SBMeFAJlEWchc6X-bSF--30" value="&lt;font style=&quot;font-size: 24px;&quot;&gt;&lt;b&gt;Time:&lt;/b&gt;&lt;/font&gt;" style="text;html=1;strokeColor=none;fillColor=none;align=left;verticalAlign=middle;whiteSpace=wrap;rounded=0;" parent="1" vertex="1">
          <mxGeometry x="640" y="390" width="130" height="30" as="geometry" />
        </mxCell>
        <mxCell id="X7MkvyAMtegaUzHnTH6l-45" style="edgeStyle=orthogonalEdgeStyle;rounded=0;orthogonalLoop=1;jettySize=auto;html=1;exitX=0.25;exitY=1;exitDx=0;exitDy=0;entryX=0;entryY=0.5;entryDx=0;entryDy=0;" edge="1" parent="1" source="SBMeFAJlEWchc6X-bSF--31" target="X7MkvyAMtegaUzHnTH6l-44">
          <mxGeometry relative="1" as="geometry">
            <Array as="points">
              <mxPoint x="670" y="510" />
            </Array>
          </mxGeometry>
        </mxCell>
        <mxCell id="X7MkvyAMtegaUzHnTH6l-47" style="edgeStyle=orthogonalEdgeStyle;rounded=0;orthogonalLoop=1;jettySize=auto;html=1;exitX=0.25;exitY=1;exitDx=0;exitDy=0;entryX=0;entryY=0.5;entryDx=0;entryDy=0;" edge="1" parent="1" source="SBMeFAJlEWchc6X-bSF--31" target="X7MkvyAMtegaUzHnTH6l-46">
          <mxGeometry relative="1" as="geometry" />
        </mxCell>
        <mxCell id="SBMeFAJlEWchc6X-bSF--31" value="TimeHandler" style="rounded=0;whiteSpace=wrap;html=1;" parent="1" vertex="1">
          <mxGeometry x="640" y="430" width="120" height="60" as="geometry" />
        </mxCell>
        <mxCell id="SBMeFAJlEWchc6X-bSF--32" value="&lt;font style=&quot;font-size: 24px;&quot;&gt;&lt;b&gt;Animations:&lt;/b&gt;&lt;/font&gt;" style="text;html=1;strokeColor=none;fillColor=none;align=left;verticalAlign=middle;whiteSpace=wrap;rounded=0;" parent="1" vertex="1">
          <mxGeometry x="40" y="750" width="130" height="30" as="geometry" />
        </mxCell>
        <mxCell id="SBMeFAJlEWchc6X-bSF--33" value="Animator" style="rounded=0;whiteSpace=wrap;html=1;" parent="1" vertex="1">
          <mxGeometry x="40" y="790" width="120" height="60" as="geometry" />
        </mxCell>
        <mxCell id="SBMeFAJlEWchc6X-bSF--34" value="&lt;font style=&quot;font-size: 24px;&quot;&gt;&lt;b&gt;Viewing:&lt;/b&gt;&lt;/font&gt;" style="text;html=1;strokeColor=none;fillColor=none;align=left;verticalAlign=middle;whiteSpace=wrap;rounded=0;" parent="1" vertex="1">
          <mxGeometry x="240" y="750" width="130" height="30" as="geometry" />
        </mxCell>
        <mxCell id="SBMeFAJlEWchc6X-bSF--35" value="Camera" style="rounded=0;whiteSpace=wrap;html=1;" parent="1" vertex="1">
          <mxGeometry x="240" y="790" width="120" height="60" as="geometry" />
        </mxCell>
        <mxCell id="SBMeFAJlEWchc6X-bSF--36" value="&lt;font style=&quot;font-size: 24px;&quot;&gt;&lt;b&gt;Game Object:&lt;/b&gt;&lt;/font&gt;" style="text;html=1;strokeColor=none;fillColor=none;align=left;verticalAlign=middle;whiteSpace=wrap;rounded=0;" parent="1" vertex="1">
          <mxGeometry x="440" y="750" width="160" height="30" as="geometry" />
        </mxCell>
        <mxCell id="SBMeFAJlEWchc6X-bSF--37" value="GameObjectHandler" style="rounded=0;whiteSpace=wrap;html=1;" parent="1" vertex="1">
          <mxGeometry x="440" y="790" width="120" height="60" as="geometry" />
        </mxCell>
        <mxCell id="SBMeFAJlEWchc6X-bSF--38" value="GameObject" style="rounded=0;whiteSpace=wrap;html=1;" parent="1" vertex="1">
          <mxGeometry x="440" y="870" width="120" height="60" as="geometry" />
        </mxCell>
        <mxCell id="SBMeFAJlEWchc6X-bSF--40" value="&lt;font style=&quot;font-size: 24px;&quot;&gt;&lt;b&gt;File Loading:&lt;/b&gt;&lt;/font&gt;" style="text;html=1;strokeColor=none;fillColor=none;align=left;verticalAlign=middle;whiteSpace=wrap;rounded=0;" parent="1" vertex="1">
          <mxGeometry x="640" y="750" width="160" height="30" as="geometry" />
        </mxCell>
        <mxCell id="SBMeFAJlEWchc6X-bSF--44" style="edgeStyle=orthogonalEdgeStyle;rounded=0;orthogonalLoop=1;jettySize=auto;html=1;exitX=0.25;exitY=1;exitDx=0;exitDy=0;entryX=0;entryY=0.5;entryDx=0;entryDy=0;" parent="1" source="SBMeFAJlEWchc6X-bSF--41" target="SBMeFAJlEWchc6X-bSF--42" edge="1">
          <mxGeometry relative="1" as="geometry" />
        </mxCell>
        <mxCell id="SBMeFAJlEWchc6X-bSF--45" style="edgeStyle=orthogonalEdgeStyle;rounded=0;orthogonalLoop=1;jettySize=auto;html=1;exitX=0.25;exitY=1;exitDx=0;exitDy=0;entryX=0;entryY=0.5;entryDx=0;entryDy=0;" parent="1" source="SBMeFAJlEWchc6X-bSF--41" target="SBMeFAJlEWchc6X-bSF--43" edge="1">
          <mxGeometry relative="1" as="geometry" />
        </mxCell>
        <mxCell id="SBMeFAJlEWchc6X-bSF--41" value="ExternalFileHandler" style="rounded=0;whiteSpace=wrap;html=1;" parent="1" vertex="1">
          <mxGeometry x="640" y="790" width="120" height="60" as="geometry" />
        </mxCell>
        <mxCell id="SBMeFAJlEWchc6X-bSF--42" value="Saving" style="rounded=0;whiteSpace=wrap;html=1;" parent="1" vertex="1">
          <mxGeometry x="710" y="860" width="50" height="20" as="geometry" />
        </mxCell>
        <mxCell id="SBMeFAJlEWchc6X-bSF--43" value="Loading" style="rounded=0;whiteSpace=wrap;html=1;" parent="1" vertex="1">
          <mxGeometry x="710" y="890" width="50" height="20" as="geometry" />
        </mxCell>
        <mxCell id="SBMeFAJlEWchc6X-bSF--46" value="Scene" style="rounded=0;whiteSpace=wrap;html=1;" parent="1" vertex="1">
          <mxGeometry x="240" y="870" width="120" height="60" as="geometry" />
        </mxCell>
        <mxCell id="X7MkvyAMtegaUzHnTH6l-1" value="&lt;font size=&quot;1&quot; style=&quot;&quot;&gt;&lt;b style=&quot;font-size: 36px;&quot;&gt;Inheritance Hierarchy:&lt;/b&gt;&lt;/font&gt;" style="text;html=1;strokeColor=none;fillColor=none;align=left;verticalAlign=middle;whiteSpace=wrap;rounded=0;" vertex="1" parent="1">
          <mxGeometry x="1050" y="80" width="390" height="30" as="geometry" />
        </mxCell>
        <mxCell id="X7MkvyAMtegaUzHnTH6l-2" value="&lt;font style=&quot;font-size: 24px;&quot;&gt;&lt;b&gt;Base &amp;amp; &lt;font color=&quot;#b3b3b3&quot;&gt;Derived&lt;/font&gt; Classes:&lt;/b&gt;&lt;/font&gt;" style="text;html=1;strokeColor=none;fillColor=none;align=left;verticalAlign=middle;whiteSpace=wrap;rounded=0;" vertex="1" parent="1">
          <mxGeometry x="871" y="120" width="290" height="30" as="geometry" />
        </mxCell>
        <mxCell id="X7MkvyAMtegaUzHnTH6l-26" style="edgeStyle=orthogonalEdgeStyle;rounded=0;orthogonalLoop=1;jettySize=auto;html=1;exitX=0.25;exitY=1;exitDx=0;exitDy=0;entryX=0;entryY=0.5;entryDx=0;entryDy=0;" edge="1" parent="1" source="X7MkvyAMtegaUzHnTH6l-3" target="X7MkvyAMtegaUzHnTH6l-6">
          <mxGeometry relative="1" as="geometry">
            <Array as="points">
              <mxPoint x="901" y="240" />
            </Array>
          </mxGeometry>
        </mxCell>
        <mxCell id="X7MkvyAMtegaUzHnTH6l-27" style="edgeStyle=orthogonalEdgeStyle;rounded=0;orthogonalLoop=1;jettySize=auto;html=1;exitX=0.25;exitY=1;exitDx=0;exitDy=0;entryX=0;entryY=0.5;entryDx=0;entryDy=0;" edge="1" parent="1" source="X7MkvyAMtegaUzHnTH6l-3" target="X7MkvyAMtegaUzHnTH6l-7">
          <mxGeometry relative="1" as="geometry" />
        </mxCell>
        <mxCell id="X7MkvyAMtegaUzHnTH6l-28" style="edgeStyle=orthogonalEdgeStyle;rounded=0;orthogonalLoop=1;jettySize=auto;html=1;exitX=0.25;exitY=1;exitDx=0;exitDy=0;entryX=0;entryY=0.5;entryDx=0;entryDy=0;" edge="1" parent="1" source="X7MkvyAMtegaUzHnTH6l-3" target="X7MkvyAMtegaUzHnTH6l-8">
          <mxGeometry relative="1" as="geometry" />
        </mxCell>
        <mxCell id="X7MkvyAMtegaUzHnTH6l-29" style="edgeStyle=orthogonalEdgeStyle;rounded=0;orthogonalLoop=1;jettySize=auto;html=1;exitX=0.25;exitY=1;exitDx=0;exitDy=0;entryX=0;entryY=0.5;entryDx=0;entryDy=0;" edge="1" parent="1" source="X7MkvyAMtegaUzHnTH6l-3" target="X7MkvyAMtegaUzHnTH6l-9">
          <mxGeometry relative="1" as="geometry" />
        </mxCell>
        <mxCell id="X7MkvyAMtegaUzHnTH6l-30" style="edgeStyle=orthogonalEdgeStyle;rounded=0;orthogonalLoop=1;jettySize=auto;html=1;exitX=0.25;exitY=1;exitDx=0;exitDy=0;entryX=0;entryY=0.5;entryDx=0;entryDy=0;" edge="1" parent="1" source="X7MkvyAMtegaUzHnTH6l-3" target="X7MkvyAMtegaUzHnTH6l-12">
          <mxGeometry relative="1" as="geometry" />
        </mxCell>
        <mxCell id="X7MkvyAMtegaUzHnTH6l-31" style="edgeStyle=orthogonalEdgeStyle;rounded=0;orthogonalLoop=1;jettySize=auto;html=1;exitX=0.25;exitY=1;exitDx=0;exitDy=0;entryX=0;entryY=0.5;entryDx=0;entryDy=0;" edge="1" parent="1" source="X7MkvyAMtegaUzHnTH6l-3" target="X7MkvyAMtegaUzHnTH6l-13">
          <mxGeometry relative="1" as="geometry" />
        </mxCell>
        <mxCell id="X7MkvyAMtegaUzHnTH6l-3" value="&lt;font color=&quot;#ffffff&quot;&gt;Component&lt;/font&gt;" style="rounded=0;whiteSpace=wrap;html=1;fillColor=#000000;" vertex="1" parent="1">
          <mxGeometry x="871" y="160" width="120" height="60" as="geometry" />
        </mxCell>
        <mxCell id="X7MkvyAMtegaUzHnTH6l-25" style="edgeStyle=orthogonalEdgeStyle;rounded=0;orthogonalLoop=1;jettySize=auto;html=1;exitX=0.25;exitY=1;exitDx=0;exitDy=0;entryX=0;entryY=0.5;entryDx=0;entryDy=0;" edge="1" parent="1" source="X7MkvyAMtegaUzHnTH6l-5" target="X7MkvyAMtegaUzHnTH6l-21">
          <mxGeometry relative="1" as="geometry">
            <Array as="points">
              <mxPoint x="1101" y="240" />
            </Array>
          </mxGeometry>
        </mxCell>
        <mxCell id="X7MkvyAMtegaUzHnTH6l-32" style="edgeStyle=orthogonalEdgeStyle;rounded=0;orthogonalLoop=1;jettySize=auto;html=1;exitX=0.25;exitY=1;exitDx=0;exitDy=0;entryX=0;entryY=0.5;entryDx=0;entryDy=0;" edge="1" parent="1" source="X7MkvyAMtegaUzHnTH6l-5" target="X7MkvyAMtegaUzHnTH6l-22">
          <mxGeometry relative="1" as="geometry" />
        </mxCell>
        <mxCell id="X7MkvyAMtegaUzHnTH6l-33" style="edgeStyle=orthogonalEdgeStyle;rounded=0;orthogonalLoop=1;jettySize=auto;html=1;exitX=0.25;exitY=1;exitDx=0;exitDy=0;entryX=0;entryY=0.5;entryDx=0;entryDy=0;" edge="1" parent="1" source="X7MkvyAMtegaUzHnTH6l-5" target="X7MkvyAMtegaUzHnTH6l-23">
          <mxGeometry relative="1" as="geometry" />
        </mxCell>
        <mxCell id="X7MkvyAMtegaUzHnTH6l-5" value="&lt;font color=&quot;#ffffff&quot;&gt;GameObject&lt;/font&gt;" style="rounded=0;whiteSpace=wrap;html=1;fillColor=#000000;" vertex="1" parent="1">
          <mxGeometry x="1071" y="160" width="120" height="60" as="geometry" />
        </mxCell>
        <mxCell id="X7MkvyAMtegaUzHnTH6l-6" value="Transform" style="rounded=0;whiteSpace=wrap;html=1;fillColor=#B3B3B3;" vertex="1" parent="1">
          <mxGeometry x="931" y="230" width="80" height="20" as="geometry" />
        </mxCell>
        <mxCell id="X7MkvyAMtegaUzHnTH6l-7" value="BoxCollider" style="rounded=0;whiteSpace=wrap;html=1;fillColor=#B3B3B3;" vertex="1" parent="1">
          <mxGeometry x="931" y="260" width="80" height="20" as="geometry" />
        </mxCell>
        <mxCell id="X7MkvyAMtegaUzHnTH6l-8" value="CircleCollider" style="rounded=0;whiteSpace=wrap;html=1;fillColor=#B3B3B3;" vertex="1" parent="1">
          <mxGeometry x="931" y="290" width="80" height="20" as="geometry" />
        </mxCell>
        <mxCell id="X7MkvyAMtegaUzHnTH6l-9" value="Rigidbody" style="rounded=0;whiteSpace=wrap;html=1;fillColor=#B3B3B3;" vertex="1" parent="1">
          <mxGeometry x="931" y="320" width="80" height="20" as="geometry" />
        </mxCell>
        <mxCell id="X7MkvyAMtegaUzHnTH6l-10" value="&lt;font style=&quot;font-size: 24px;&quot;&gt;&lt;b&gt;Engine:&lt;/b&gt;&lt;/font&gt;" style="text;html=1;strokeColor=none;fillColor=none;align=left;verticalAlign=middle;whiteSpace=wrap;rounded=0;" vertex="1" parent="1">
          <mxGeometry x="40" y="950" width="130" height="30" as="geometry" />
        </mxCell>
        <mxCell id="X7MkvyAMtegaUzHnTH6l-11" value="Engine" style="rounded=0;whiteSpace=wrap;html=1;" vertex="1" parent="1">
          <mxGeometry x="40" y="990" width="120" height="60" as="geometry" />
        </mxCell>
        <mxCell id="X7MkvyAMtegaUzHnTH6l-12" value="Animator" style="rounded=0;whiteSpace=wrap;html=1;fillColor=#B3B3B3;" vertex="1" parent="1">
          <mxGeometry x="931" y="349" width="80" height="20" as="geometry" />
        </mxCell>
        <mxCell id="X7MkvyAMtegaUzHnTH6l-13" value="Camera" style="rounded=0;whiteSpace=wrap;html=1;fillColor=#B3B3B3;" vertex="1" parent="1">
          <mxGeometry x="931" y="380" width="80" height="20" as="geometry" />
        </mxCell>
        <mxCell id="X7MkvyAMtegaUzHnTH6l-37" style="edgeStyle=orthogonalEdgeStyle;rounded=0;orthogonalLoop=1;jettySize=auto;html=1;exitX=0.25;exitY=1;exitDx=0;exitDy=0;entryX=0;entryY=0.5;entryDx=0;entryDy=0;" edge="1" parent="1" source="X7MkvyAMtegaUzHnTH6l-14" target="X7MkvyAMtegaUzHnTH6l-34">
          <mxGeometry relative="1" as="geometry">
            <Array as="points">
              <mxPoint x="1301" y="240" />
            </Array>
          </mxGeometry>
        </mxCell>
        <mxCell id="X7MkvyAMtegaUzHnTH6l-38" style="edgeStyle=orthogonalEdgeStyle;rounded=0;orthogonalLoop=1;jettySize=auto;html=1;exitX=0.25;exitY=1;exitDx=0;exitDy=0;entryX=0;entryY=0.5;entryDx=0;entryDy=0;" edge="1" parent="1" source="X7MkvyAMtegaUzHnTH6l-14" target="X7MkvyAMtegaUzHnTH6l-35">
          <mxGeometry relative="1" as="geometry" />
        </mxCell>
        <mxCell id="X7MkvyAMtegaUzHnTH6l-39" style="edgeStyle=orthogonalEdgeStyle;rounded=0;orthogonalLoop=1;jettySize=auto;html=1;exitX=0.25;exitY=1;exitDx=0;exitDy=0;entryX=0;entryY=0.5;entryDx=0;entryDy=0;" edge="1" parent="1" source="X7MkvyAMtegaUzHnTH6l-14" target="X7MkvyAMtegaUzHnTH6l-36">
          <mxGeometry relative="1" as="geometry" />
        </mxCell>
        <mxCell id="X7MkvyAMtegaUzHnTH6l-14" value="&lt;font color=&quot;#ffffff&quot;&gt;Scene&lt;/font&gt;" style="rounded=0;whiteSpace=wrap;html=1;fillColor=#000000;" vertex="1" parent="1">
          <mxGeometry x="1271" y="160" width="120" height="60" as="geometry" />
        </mxCell>
        <mxCell id="X7MkvyAMtegaUzHnTH6l-15" value="Button" style="rounded=0;whiteSpace=wrap;html=1;fillColor=#B3B3B3;" vertex="1" parent="1">
          <mxGeometry x="1531" y="230" width="80" height="20" as="geometry" />
        </mxCell>
        <mxCell id="X7MkvyAMtegaUzHnTH6l-16" value="Text" style="rounded=0;whiteSpace=wrap;html=1;fillColor=#B3B3B3;" vertex="1" parent="1">
          <mxGeometry x="1531" y="260" width="80" height="20" as="geometry" />
        </mxCell>
        <mxCell id="X7MkvyAMtegaUzHnTH6l-17" value="Icon" style="rounded=0;whiteSpace=wrap;html=1;fillColor=#B3B3B3;" vertex="1" parent="1">
          <mxGeometry x="1531" y="290" width="80" height="20" as="geometry" />
        </mxCell>
        <mxCell id="X7MkvyAMtegaUzHnTH6l-18" value="Icon" style="rounded=0;whiteSpace=wrap;html=1;" vertex="1" parent="1">
          <mxGeometry x="440" y="670" width="120" height="60" as="geometry" />
        </mxCell>
        <mxCell id="X7MkvyAMtegaUzHnTH6l-40" style="edgeStyle=orthogonalEdgeStyle;rounded=0;orthogonalLoop=1;jettySize=auto;html=1;exitX=0.25;exitY=1;exitDx=0;exitDy=0;entryX=0;entryY=0.5;entryDx=0;entryDy=0;" edge="1" parent="1" source="X7MkvyAMtegaUzHnTH6l-19" target="X7MkvyAMtegaUzHnTH6l-15">
          <mxGeometry relative="1" as="geometry">
            <Array as="points">
              <mxPoint x="1501" y="240" />
            </Array>
          </mxGeometry>
        </mxCell>
        <mxCell id="X7MkvyAMtegaUzHnTH6l-41" style="edgeStyle=orthogonalEdgeStyle;rounded=0;orthogonalLoop=1;jettySize=auto;html=1;exitX=0.25;exitY=1;exitDx=0;exitDy=0;entryX=0;entryY=0.5;entryDx=0;entryDy=0;" edge="1" parent="1" source="X7MkvyAMtegaUzHnTH6l-19" target="X7MkvyAMtegaUzHnTH6l-16">
          <mxGeometry relative="1" as="geometry" />
        </mxCell>
        <mxCell id="X7MkvyAMtegaUzHnTH6l-42" style="edgeStyle=orthogonalEdgeStyle;rounded=0;orthogonalLoop=1;jettySize=auto;html=1;exitX=0.25;exitY=1;exitDx=0;exitDy=0;entryX=0;entryY=0.5;entryDx=0;entryDy=0;" edge="1" parent="1" source="X7MkvyAMtegaUzHnTH6l-19" target="X7MkvyAMtegaUzHnTH6l-17">
          <mxGeometry relative="1" as="geometry" />
        </mxCell>
        <mxCell id="X7MkvyAMtegaUzHnTH6l-19" value="&lt;font color=&quot;#ffffff&quot;&gt;UI_Element&lt;/font&gt;" style="rounded=0;whiteSpace=wrap;html=1;fillColor=#000000;" vertex="1" parent="1">
          <mxGeometry x="1471" y="160" width="120" height="60" as="geometry" />
        </mxCell>
        <mxCell id="X7MkvyAMtegaUzHnTH6l-20" value="UI_Handler" style="rounded=0;whiteSpace=wrap;html=1;" vertex="1" parent="1">
          <mxGeometry x="440" y="430" width="120" height="60" as="geometry" />
        </mxCell>
        <mxCell id="X7MkvyAMtegaUzHnTH6l-21" value="&lt;font color=&quot;#ffffff&quot;&gt;Player&lt;/font&gt;" style="rounded=0;whiteSpace=wrap;html=1;fillColor=#66FF66;" vertex="1" parent="1">
          <mxGeometry x="1131" y="230" width="80" height="20" as="geometry" />
        </mxCell>
        <mxCell id="X7MkvyAMtegaUzHnTH6l-22" value="&lt;font color=&quot;#ffffff&quot;&gt;Coin&lt;/font&gt;" style="rounded=0;whiteSpace=wrap;html=1;fillColor=#66FF66;" vertex="1" parent="1">
          <mxGeometry x="1131" y="260" width="80" height="20" as="geometry" />
        </mxCell>
        <mxCell id="X7MkvyAMtegaUzHnTH6l-23" value="&lt;font color=&quot;#ffffff&quot;&gt;Enemy&lt;/font&gt;" style="rounded=0;whiteSpace=wrap;html=1;fillColor=#66FF66;" vertex="1" parent="1">
          <mxGeometry x="1131" y="290" width="80" height="20" as="geometry" />
        </mxCell>
        <mxCell id="X7MkvyAMtegaUzHnTH6l-34" value="&lt;font color=&quot;#ffffff&quot;&gt;Mario Bros&lt;/font&gt;" style="rounded=0;whiteSpace=wrap;html=1;fillColor=#66FF66;" vertex="1" parent="1">
          <mxGeometry x="1331" y="230" width="80" height="20" as="geometry" />
        </mxCell>
        <mxCell id="X7MkvyAMtegaUzHnTH6l-35" value="&lt;font color=&quot;#ffffff&quot;&gt;Asteroid&lt;/font&gt;" style="rounded=0;whiteSpace=wrap;html=1;fillColor=#66FF66;" vertex="1" parent="1">
          <mxGeometry x="1331" y="260" width="80" height="20" as="geometry" />
        </mxCell>
        <mxCell id="X7MkvyAMtegaUzHnTH6l-36" value="&lt;font color=&quot;#ffffff&quot;&gt;Pacman&lt;/font&gt;" style="rounded=0;whiteSpace=wrap;html=1;fillColor=#66FF66;" vertex="1" parent="1">
          <mxGeometry x="1331" y="290" width="80" height="20" as="geometry" />
        </mxCell>
        <mxCell id="X7MkvyAMtegaUzHnTH6l-43" value="&lt;b style=&quot;&quot;&gt;&lt;font color=&quot;#66ff66&quot; style=&quot;font-size: 14px;&quot;&gt;(Concept Classes)&lt;/font&gt;&lt;/b&gt;" style="text;html=1;strokeColor=none;fillColor=none;align=left;verticalAlign=middle;whiteSpace=wrap;rounded=0;" vertex="1" parent="1">
          <mxGeometry x="1161" y="120" width="129" height="30" as="geometry" />
        </mxCell>
        <mxCell id="X7MkvyAMtegaUzHnTH6l-44" value="DeltaTime" style="rounded=0;whiteSpace=wrap;html=1;" vertex="1" parent="1">
          <mxGeometry x="700" y="500" width="80" height="20" as="geometry" />
        </mxCell>
        <mxCell id="X7MkvyAMtegaUzHnTH6l-46" value="ElapsedTime" style="rounded=0;whiteSpace=wrap;html=1;" vertex="1" parent="1">
          <mxGeometry x="700" y="530" width="80" height="20" as="geometry" />
        </mxCell>
        <mxCell id="X7MkvyAMtegaUzHnTH6l-48" value="Keyboard" style="rounded=0;whiteSpace=wrap;html=1;" vertex="1" parent="1">
          <mxGeometry x="700" y="190" width="60" height="20" as="geometry" />
        </mxCell>
        <mxCell id="X7MkvyAMtegaUzHnTH6l-50" value="SAT" style="rounded=0;whiteSpace=wrap;html=1;" vertex="1" parent="1">
          <mxGeometry x="300" y="190" width="60" height="20" as="geometry" />
        </mxCell>
      </root>
    </mxGraphModel>
  </diagram>
</mxfile>
